<svg width="328" height="80" viewBox="0 0 296 74" fill="none" xmlns="http://www.w3.org/2000/svg">
<path d="M15.8938 0.639996C15.8938 0.426662 16.2671 0.373329 17.0138 0.479998C17.7604 0.586663 18.5604 1.06666 19.4138 1.92C21.7604 3.2 22.6138 6.18666 21.9738 10.88C21.7604 13.8667 21.5471 16.4267 21.3337 18.56C20.9071 20.0533 20.5871 21.5467 20.3738 23.04C20.3738 24.32 20.4271 25.0667 20.5338 25.28C20.6404 25.4933 21.0138 25.3867 21.6538 24.96C22.0804 24.96 23.1471 25.1733 24.8538 25.6C26.7738 26.0267 28.1604 26.7733 29.0138 27.84C29.4404 28.2667 29.8671 28.6933 30.2938 29.12C30.7204 29.5467 30.9338 29.8667 30.9338 30.08C30.9338 30.2933 30.6671 30.6667 30.1338 31.2C29.6004 31.7333 29.2271 32 29.0138 32C29.0138 32 28.0538 32.4267 26.1337 33.28C25.2804 33.7067 24.6404 34.08 24.2138 34.4C23.7871 34.72 23.3604 35.2 22.9338 35.84C22.2938 36.6933 21.8671 37.44 21.6538 38.08C21.4404 38.72 21.0138 39.5733 20.3738 40.64C20.1604 41.0667 19.9471 41.6 19.7338 42.24C19.5204 42.88 19.4138 44.48 19.4138 47.04C19.4138 49.6 19.5204 50.9867 19.7338 51.2C19.9471 51.4133 20.6938 51.52 21.9738 51.52C28.3738 52.16 33.2804 54.1867 36.6938 57.6C37.9738 58.4533 38.8271 59.4133 39.2538 60.48C39.6804 61.5467 39.8938 62.5067 39.8938 63.36C39.8938 64.64 39.4671 66.0267 38.6138 67.52C38.4004 68.16 37.6538 68.96 36.3738 69.92C35.0938 70.88 34.0271 71.36 33.1738 71.36C32.5338 71.7867 32.2138 71.8933 32.2138 71.68C32.2138 71.4667 32.5338 71.1467 33.1738 70.72C33.8138 69.6533 34.5071 68.3733 35.2538 66.88C36.0004 65.3867 36.4804 64.2133 36.6938 63.36C36.6938 62.5067 36.5871 61.76 36.3738 61.12C35.9471 60.0533 34.8804 59.0933 33.1738 58.24C30.4004 56.7467 26.6671 55.7867 21.9738 55.36C20.6938 54.9333 19.9471 54.8267 19.7338 55.04C19.5204 55.2533 19.4138 56.5333 19.4138 58.88C19.4138 62.9333 19.7338 66.0267 20.3738 68.16C20.5871 68.8 20.6938 69.6533 20.6938 70.72C20.6938 71.7867 20.4804 72.5333 20.0538 72.96C19.4138 73.8133 18.8804 74.1867 18.4538 74.08C18.0271 73.9733 17.2804 73.4933 16.2138 72.64C15.1471 72.2133 14.5604 71.4667 14.4538 70.4C14.3471 69.3333 14.1871 67.52 13.9738 64.96C13.9738 62.8267 13.9738 61.3867 13.9738 60.64C13.9738 59.8933 14.0804 59.52 14.2938 59.52C14.5071 59.52 14.6138 59.4133 14.6138 59.2C14.6138 58.9867 14.6138 58.24 14.6138 56.96C14.8271 55.04 14.8271 54.08 14.6138 54.08C14.4004 53.6533 13.7604 53.44 12.6938 53.44C12.4804 53.44 12.2671 53.6533 12.0538 54.08C8.85375 58.7733 5.76042 61.12 2.77375 61.12C1.92042 61.12 1.28042 60.9067 0.853751 60.48C0.427084 60.0533 0.21375 59.7333 0.21375 59.52C0.21375 58.24 1.33375 56.64 3.57375 54.72C5.81375 52.8 8.00042 50.1333 10.1338 46.72L13.6538 42.24C15.1471 40.5333 15.9471 39.52 16.0538 39.2C16.1604 38.88 16.2138 38.4 16.2138 37.76C16.2138 37.3333 16.0004 37.12 15.5738 37.12C15.1471 37.12 14.5071 37.12 13.6538 37.12C12.5871 37.3333 10.9871 37.3867 8.85375 37.28C6.72042 37.1733 5.12042 37.0133 4.05375 36.8C3.20042 36.16 2.24042 35.0933 1.17375 33.6C0.960418 32.96 0.907085 32.5867 1.01375 32.48C1.12042 32.3733 2.02709 32.2133 3.73375 32C6.29375 32 8.21375 31.7333 9.49375 31.2C10.7738 30.6667 12.9071 29.6533 15.8938 28.16L16.8538 27.2V25.6C17.2804 21.5467 17.4938 17.12 17.4938 12.32C17.4938 7.52 17.4938 4.69333 17.4938 3.84C17.0671 3.2 16.6938 2.61333 16.3738 2.08C16.0538 1.54666 15.8938 1.06666 15.8938 0.639996ZM14.9338 50.24C14.9338 50.0267 14.8271 49.92 14.6138 49.92C14.6138 49.92 14.5071 50.0267 14.2938 50.24C14.0804 50.4533 14.0804 50.6667 14.2938 50.88C14.2938 50.88 14.3471 50.88 14.4538 50.88C14.5604 50.88 14.6671 50.8267 14.7738 50.72C14.8804 50.6133 14.9338 50.4533 14.9338 50.24ZM97.8469 0.639996C97.8469 0.426662 98.2202 0.373329 98.9669 0.479998C99.7135 0.586663 100.514 1.06666 101.367 1.92C103.714 3.2 104.567 6.18666 103.927 10.88C103.714 13.8667 103.5 16.4267 103.287 18.56C102.86 20.0533 102.54 21.5467 102.327 23.04C102.327 24.32 102.38 25.0667 102.487 25.28C102.594 25.4933 102.967 25.3867 103.607 24.96C104.034 24.96 105.1 25.1733 106.807 25.6C108.727 26.0267 110.114 26.7733 110.967 27.84C111.394 28.2667 111.82 28.6933 112.247 29.12C112.674 29.5467 112.887 29.8667 112.887 30.08C112.887 30.2933 112.62 30.6667 112.087 31.2C111.554 31.7333 111.18 32 110.967 32C110.967 32 110.007 32.4267 108.087 33.28C107.234 33.7067 106.594 34.08 106.167 34.4C105.74 34.72 105.314 35.2 104.887 35.84C104.247 36.6933 103.82 37.44 103.607 38.08C103.394 38.72 102.967 39.5733 102.327 40.64C102.114 41.0667 101.9 41.6 101.687 42.24C101.474 42.88 101.367 44.48 101.367 47.04C101.367 49.6 101.474 50.9867 101.687 51.2C101.9 51.4133 102.647 51.52 103.927 51.52C110.327 52.16 115.234 54.1867 118.647 57.6C119.927 58.4533 120.78 59.4133 121.207 60.48C121.634 61.5467 121.847 62.5067 121.847 63.36C121.847 64.64 121.42 66.0267 120.567 67.52C120.354 68.16 119.607 68.96 118.327 69.92C117.047 70.88 115.98 71.36 115.127 71.36C114.487 71.7867 114.167 71.8933 114.167 71.68C114.167 71.4667 114.487 71.1467 115.127 70.72C115.767 69.6533 116.46 68.3733 117.207 66.88C117.954 65.3867 118.434 64.2133 118.647 63.36C118.647 62.5067 118.54 61.76 118.327 61.12C117.9 60.0533 116.834 59.0933 115.127 58.24C112.354 56.7467 108.62 55.7867 103.927 55.36C102.647 54.9333 101.9 54.8267 101.687 55.04C101.474 55.2533 101.367 56.5333 101.367 58.88C101.367 62.9333 101.687 66.0267 102.327 68.16C102.54 68.8 102.647 69.6533 102.647 70.72C102.647 71.7867 102.434 72.5333 102.007 72.96C101.367 73.8133 100.834 74.1867 100.407 74.08C99.9802 73.9733 99.2335 73.4933 98.1669 72.64C97.1002 72.2133 96.5135 71.4667 96.4069 70.4C96.3002 69.3333 96.1402 67.52 95.9269 64.96C95.9269 62.8267 95.9269 61.3867 95.9269 60.64C95.9269 59.8933 96.0335 59.52 96.2469 59.52C96.4602 59.52 96.5669 59.4133 96.5669 59.2C96.5669 58.9867 96.5669 58.24 96.5669 56.96C96.7802 55.04 96.7802 54.08 96.5669 54.08C96.3535 53.6533 95.7135 53.44 94.6469 53.44C94.4335 53.44 94.2202 53.6533 94.0069 54.08C90.8069 58.7733 87.7135 61.12 84.7269 61.12C83.8735 61.12 83.2335 60.9067 82.8069 60.48C82.3802 60.0533 82.1669 59.7333 82.1669 59.52C82.1669 58.24 83.2869 56.64 85.5269 54.72C87.7669 52.8 89.9535 50.1333 92.0869 46.72L95.6069 42.24C97.1002 40.5333 97.9002 39.52 98.0069 39.2C98.1135 38.88 98.1669 38.4 98.1669 37.76C98.1669 37.3333 97.9535 37.12 97.5269 37.12C97.1002 37.12 96.4602 37.12 95.6069 37.12C94.5402 37.3333 92.9402 37.3867 90.8069 37.28C88.6735 37.1733 87.0735 37.0133 86.0069 36.8C85.1535 36.16 84.1935 35.0933 83.1269 33.6C82.9135 32.96 82.8602 32.5867 82.9669 32.48C83.0735 32.3733 83.9802 32.2133 85.6869 32C88.2469 32 90.1669 31.7333 91.4469 31.2C92.7269 30.6667 94.8602 29.6533 97.8469 28.16L98.8069 27.2V25.6C99.2335 21.5467 99.4469 17.12 99.4469 12.32C99.4469 7.52 99.4469 4.69333 99.4469 3.84C99.0202 3.2 98.6469 2.61333 98.3269 2.08C98.0069 1.54666 97.8469 1.06666 97.8469 0.639996ZM96.8869 50.24C96.8869 50.0267 96.7802 49.92 96.5669 49.92C96.5669 49.92 96.4602 50.0267 96.2469 50.24C96.0335 50.4533 96.0335 50.6667 96.2469 50.88C96.2469 50.88 96.3002 50.88 96.4069 50.88C96.5135 50.88 96.6202 50.8267 96.7269 50.72C96.8335 50.6133 96.8869 50.4533 96.8869 50.24ZM166.04 64.64C166.04 64.64 166.467 64.8533 167.32 65.28C168.6 66.56 169.88 67.2 171.16 67.2C173.08 67.2 175.213 66.4533 177.56 64.96C178.413 64.7467 178.84 64.64 178.84 64.64C179.267 64.64 178.947 65.3867 177.88 66.88L175.32 69.44C174.253 70.72 173.72 71.4667 173.72 71.68C173.72 71.8933 173.507 72.0533 173.08 72.16C172.653 72.2667 172.227 72.32 171.8 72.32C171.373 72.32 170.733 72.1067 169.88 71.68C169.027 71.2533 168.28 70.5067 167.64 69.44C167 69.0133 166.52 68.16 166.2 66.88C165.88 65.6 165.827 64.8533 166.04 64.64ZM194.52 59.2C194.52 58.7733 194.84 58.56 195.48 58.56C195.693 58.9867 196.12 59.2 196.76 59.2C199.32 59.84 200.92 61.12 201.56 63.04C202.413 64.1067 202.733 65.0667 202.52 65.92C202.307 66.7733 201.453 67.84 199.96 69.12C198.253 71.04 197.187 71.7867 196.76 71.36C196.333 71.36 195.96 71.52 195.64 71.84C195.32 72.16 194.893 72.32 194.36 72.32C193.827 72.32 193.347 72.5333 192.92 72.96C192.28 73.3867 191.587 73.7067 190.84 73.92C190.093 74.1333 189.72 74.1333 189.72 73.92C189.08 73.7067 189.187 73.2267 190.04 72.48C190.893 71.7333 191.533 71.04 191.96 70.4C194.733 66.1333 196.28 63.52 196.6 62.56C196.92 61.6 196.653 60.6933 195.8 59.84C194.947 59.4133 194.52 59.2 194.52 59.2ZM177.88 0.639996C177.88 0.426662 178.413 0.639996 179.48 1.28C180.547 1.70666 181.347 2.18666 181.88 2.72C182.413 3.25333 182.893 4.05333 183.32 5.12C184.387 7.25333 184.707 10.6667 184.28 15.36C184.067 18.7733 184.067 20.5867 184.28 20.8C184.28 20.8 184.867 20.5333 186.04 20C187.213 19.4667 188.013 19.2 188.44 19.2C189.72 19.2 191 19.7333 192.28 20.8C193.133 21.0133 193.72 21.28 194.04 21.6C194.36 21.92 194.413 22.08 194.2 22.08C194.2 22.2933 194.36 22.56 194.68 22.88C195 23.2 194.947 23.5733 194.52 24C194.307 24.64 192.387 25.4933 188.76 26.56C185.987 27.6267 184.493 28.2667 184.28 28.48C183 29.12 181.933 32.32 181.08 38.08C181.08 38.72 180.867 39.7867 180.44 41.28C179.8 43.4133 179.693 44.48 180.12 44.48C180.333 44.48 181.4 43.9467 183.32 42.88C185.667 41.8133 187.16 41.1733 187.8 40.96C188.44 40.7467 189.4 40.7467 190.68 40.96C191.747 40.96 192.6 41.1733 193.24 41.6C193.88 42.24 194.093 42.88 193.88 43.52C193.667 44.16 193.133 45.12 192.28 46.4C191.853 47.2533 191.107 48.16 190.04 49.12C188.973 50.08 188.333 50.56 188.12 50.56C187.907 50.56 187.64 50.72 187.32 51.04C187 51.36 186.733 51.52 186.52 51.52C186.307 51.52 185.667 51.84 184.6 52.48C182.467 54.4 181.293 55.04 181.08 54.4C180.653 54.1867 180.973 53.5467 182.04 52.48C183.533 50.7733 184.387 49.3867 184.6 48.32V47.68L183.96 48C183.32 48 182.68 48.1067 182.04 48.32C180.76 48.7467 179.853 48.96 179.32 48.96C178.787 48.96 178.307 48.7467 177.88 48.32C176.173 46.4 175.64 43.52 176.28 39.68C177.133 36.0533 177.56 33.4933 177.56 32C177.56 31.36 177.453 30.9333 177.24 30.72C177.027 30.5067 176.28 30.4 175 30.4C172.867 30.1867 171.48 29.8667 170.84 29.44C170.2 28.8 169.667 28.3733 169.24 28.16C168.173 27.9467 168.28 27.4133 169.56 26.56C170.627 26.3467 172.227 25.8667 174.36 25.12C176.493 24.3733 177.667 23.7867 177.88 23.36C177.88 23.1467 178.04 22.0267 178.36 20C178.68 17.9733 178.84 16.3733 178.84 15.2C178.84 14.0267 179.053 12.2667 179.48 9.92C179.48 7.57333 179.48 5.97333 179.48 5.12C179.48 4.26666 179.16 3.30666 178.52 2.24C178.093 1.17333 177.88 0.639996 177.88 0.639996ZM265.593 1.28H265.913C266.766 1.28 267.673 1.92 268.633 3.2C269.593 4.48 270.286 5.86666 270.713 7.36C271.14 8.85333 271.353 9.97333 271.353 10.72C271.353 11.4667 271.353 14.4 271.353 19.52C271.353 25.92 271.406 29.1733 271.513 29.28C271.62 29.3867 272.846 28.9067 275.193 27.84C280.1 25.28 283.833 24 286.393 24C287.886 24 289.166 24.5333 290.233 25.6C291.513 27.0933 291.726 29.3333 290.873 32.32C289.166 35.7333 287.353 38.72 285.433 41.28C282.02 44.48 278.286 46.72 274.233 48C273.593 48 273.22 48.2133 273.113 48.64C273.006 49.0667 273.06 50.1333 273.273 51.84C273.486 54.8267 274.126 56.7467 275.193 57.6C277.113 58.4533 280.846 58.9867 286.393 59.2C288.953 59.4133 290.873 59.7333 292.153 60.16C293.433 60.5867 294.286 61.0133 294.713 61.44C295.566 62.2933 295.993 63.1467 295.993 64C295.993 64.8533 295.513 65.92 294.553 67.2C293.593 68.48 292.58 69.5467 291.513 70.4C289.593 71.8933 288.42 72.64 287.993 72.64C287.14 72.64 287.14 72.2133 287.993 71.36C289.273 70.2933 290.233 68.9067 290.873 67.2C291.726 65.92 291.94 65.0667 291.513 64.64C291.3 64.2133 289.7 64 286.713 64C282.446 64 279.406 63.7867 277.593 63.36C275.78 62.9333 274.233 62.08 272.953 60.8C270.82 58.24 269.433 54.72 268.793 50.24V47.68L267.193 46.4C266.553 45.9733 266.126 45.7067 265.913 45.6C265.7 45.4933 265.273 45.0133 264.633 44.16C264.206 43.52 264.046 43.1467 264.153 43.04C264.26 42.9333 264.74 42.9867 265.593 43.2C266.66 43.84 267.62 43.9467 268.473 43.52C268.686 43.3067 268.74 41.8667 268.633 39.2C268.526 36.5333 268.473 35.2 268.473 35.2C267.833 34.7733 266.553 35.2533 264.633 36.64C262.713 38.0267 261.54 39.1467 261.113 40L259.833 41.6C258.766 42.88 258.18 43.68 258.073 44C257.966 44.32 257.54 45.3867 256.793 47.2C256.046 49.0133 255.3 51.4133 254.553 54.4C253.806 57.3867 253.22 59.0933 252.793 59.52C252.58 60.3733 251.78 61.44 250.393 62.72C249.006 64 248.206 64.64 247.993 64.64C247.566 65.0667 246.926 65.0667 246.073 64.64C245.006 64 243.94 62.72 242.873 60.8C241.38 58.6667 240.206 54.8267 239.353 49.28C239.14 45.8667 238.926 43.52 238.713 42.24C238.5 40.96 237.913 39.84 236.953 38.88C235.993 37.92 235.513 36.9067 235.513 35.84C235.513 35.4133 235.94 34.3467 236.793 32.64C239.14 27.3067 241.913 22.1867 245.113 17.28C246.606 15.1467 247.46 13.6533 247.673 12.8L247.993 10.56L247.353 9.92C246.5 9.28 246.02 8.85333 245.913 8.64C245.806 8.42666 245.806 8.16 245.913 7.84C246.02 7.52 246.34 7.36 246.873 7.36C247.406 7.36 247.886 7.68 248.313 8.32C251.086 8.74666 253.006 9.81333 254.073 11.52C254.5 11.7333 254.82 12.0533 255.033 12.48C255.246 12.9067 255.353 13.5467 255.353 14.4C254.926 15.68 254.073 17.0667 252.793 18.56C251.086 21.5467 249.486 23.36 247.993 24C246.073 25.7067 244.473 27.4133 243.193 29.12C241.913 31.2533 240.313 33.3867 238.393 35.52C237.326 36.5867 236.793 37.1733 236.793 37.28C236.793 37.3867 237.433 37.8667 238.713 38.72C239.993 39.5733 241.486 41.6 243.193 44.8C244.26 47.36 245.113 50.24 245.753 53.44C245.966 54.72 246.18 55.52 246.393 55.84C246.606 56.16 247.033 55.4667 247.673 53.76C249.38 50.56 251.513 47.36 254.073 44.16C257.06 40.1067 261.433 36.16 267.193 32.32L268.473 32V30.08C267.62 24.5333 267.3 19.2 267.513 14.08C267.513 10.6667 267.46 8.37333 267.353 7.2C267.246 6.02666 266.873 4.8 266.233 3.52C265.806 2.24 265.593 1.49333 265.593 1.28ZM285.433 27.84C285.006 27.6267 283.94 27.6267 282.233 27.84C280.313 28.2667 278.286 29.0667 276.153 30.24C274.02 31.4133 272.633 32.2133 271.993 32.64C271.78 32.8533 271.673 34.6667 271.673 38.08C271.886 41.7067 272.313 43.52 272.953 43.52C272.953 43.52 273.166 43.4133 273.593 43.2C275.3 41.92 277.22 40.1067 279.353 37.76C281.486 35.4133 283.086 32.8533 284.153 30.08C285.006 28.8 285.433 28.0533 285.433 27.84Z" fill="#141637"/>
</svg>
